<?xml version="1.0" encoding="utf-8"?>
<!-- Generator: Adobe Illustrator 16.0.3, SVG Export Plug-In . SVG Version: 6.00 Build 0)  -->
<!DOCTYPE svg PUBLIC "-//W3C//DTD SVG 1.1//EN" "http://www.w3.org/Graphics/SVG/1.1/DTD/svg11.dtd">
<svg version="1.1" id="Capa_1" xmlns="http://www.w3.org/2000/svg" xmlns:xlink="http://www.w3.org/1999/xlink" x="0px" y="0px"
	 width="731.888px" height="938.908px" viewBox="0 0 731.888 938.908" enable-background="new 0 0 731.888 938.908"
	 xml:space="preserve">
<g>
	<path opacity="0.5" fill="#6C5C5D" d="M482.013,922.323c0,9.159-7.426,16.585-16.584,16.585H108.848
		c-9.16,0-16.585-7.426-16.585-16.585l0,0c0-9.16,7.425-16.585,16.585-16.585h356.581
		C474.587,905.738,482.013,913.163,482.013,922.323L482.013,922.323z"/>
	<g>
		<path fill="#2BADB9" d="M593.585,342.604c0,0-30.738-41.374-117.174-17.614l17.215,37.844c0,0,27.105,1.08,28.658,2.374
			C523.841,366.5,593.585,342.604,593.585,342.604z"/>
		<path fill="#F6B310" d="M577.573,350.495c0,0-5.121-27.146,7.072-37.034c12.191-9.888,47.25-9.979,60.211-9.208
			s21.465-12.99,16.633-22.625c-4.836-9.635-60.518-8.546-82.162-4.795c-21.645,3.75-29.045,12.563-46.936,14.338
			c-17.891,1.776-30.107,1.195-35.898,8.673c-5.793,7.479-10.311,32.641-10.311,32.641S523.597,368.507,577.573,350.495z"/>
		<path fill="#F9FBEA" d="M360.708,377.32c0,0,82.604,35.765,115.704-52.33c0,0,41.102,36.486,117.174,17.614
			c0,0-3.295,130.544-159.328,147.592s-1.938,0.14-1.938,0.14L360.708,377.32z"/>
		<g>
			<path fill="#535866" d="M685.821,269.587c0,0,2.08-118.184-128.271-122.673c-130.35-4.489-130.461,110.57-131.33,134.009
				L685.821,269.587z"/>
			<path opacity="0.4" fill="#535866" d="M450.234,277.63c0.761-20.497,0.943-111.062,88.155-130.466
				c-111.184,6.923-111.346,111.532-112.17,133.759l259.602-11.336c0,0,0.013-0.798-0.032-2.243L450.234,277.63z"/>
			<path fill="#535866" d="M560.864,154.894c-0.039-0.545-2.727-25.188-2.727-25.188l-6.578,2.483l1.623,22.528L560.864,154.894z"/>
			<path fill="#535866" d="M574.11,116.958c0,0,27.822,7.218,6.861,12.837c-20.963,5.619-57.523,11.449-61.352,2.685
				C515.794,123.716,541.976,111.969,574.11,116.958z"/>
			<path fill="#F9FBEA" d="M588.501,163.881c0,0,60.51,8.485,80.426,87.191l-13.445,0.969
				C655.481,252.041,655.46,195.946,588.501,163.881z"/>
			<path fill="#535866" d="M731.888,265.156l-7.447,18.267c0,0-177.943-22.929-332.019,15.054l-9.177-19.206
				C383.245,279.271,606.933,247.661,731.888,265.156z"/>
		</g>
		<path fill="#F6B310" d="M540.39,297.414c0,0-15.1-16.93-44.531-16.515c-29.434,0.416-48.275,2.504-45.319,13.126
			c2.958,10.622-0.238,20.348,24.108,20.299c24.346-0.049,36.82-2.652,36.82-2.652L540.39,297.414z"/>
		<polygon fill="#0F1218" points="379.526,690.396 343.728,893.128 318.292,894.96 277.846,708.677 216.651,893.517 
			186.071,884.762 168.25,688.084 		"/>
		<path fill="#F9FBEA" d="M340.445,360.839c0,0,122.72,91.236,141.521,189.958c18.799,98.722-35.045,162.502-114.979,178.487
			c-79.932,15.985-206.928-23.079-206.928-23.079L125.228,537.05l-9.057-125.721l22.726-19.169L340.445,360.839z"/>
		<polygon fill="#0F1218" points="343.728,893.128 412.634,926.878 331.391,921.286 330.199,925.025 314.555,920.796 
			318.292,894.96 		"/>
		<polygon fill="#0F1218" points="216.651,893.517 214.791,921.774 198.916,924.498 197.322,919.257 128.394,932.5 186.071,884.762 
					"/>
		<g>
			<g>
				<g>
					<path fill="#1B3142" d="M257.422,587.427c-14.951-85.851-113.375-174.454-113.375-174.454l41.704-10.864
						c11.233,12.4,40.16,44.759,79.557,91.978c51.169,61.327,127.875,30.965,132.262-9.528
						c3.896-35.943-64.076-102.452-79.399-116.943l27.442-7.149c0,0,190.033,114.146,144.797,286.876
						c0,0-11.473,43.926-25.682,69.787c-14.207,25.859-32.088,71.708-30.623,92.056c0,0-71.233,65.763-231.095,16.648
						C203.009,825.834,272.373,673.277,257.422,587.427z"/>
				</g>
			</g>
		</g>
		<path fill="#182A38" d="M203.009,825.834c0,0,69.364-152.557,54.413-238.407S144.047,412.973,144.047,412.973l8.108-2.112
			C275.099,463.173,300.531,588.524,299,626.205c-1.73,42.626-9.193,54.942,36.042,72.754
			c43.912,17.291,100.717,11.027,146.971-23.744c-4.559,13.68-10.621,29.784-17.285,41.915
			c-14.207,25.859-32.088,71.708-30.623,92.056C434.104,809.186,362.872,874.948,203.009,825.834z"/>
		<g>
			<g>
				<path fill="#13222D" d="M203.009,825.834c0,0,69.364-152.557,54.413-238.407c-12.986-74.572-88.938-151.204-108.676-170.059
					c0,0,0,0,0.001,0.001c139.93,65.544,140.737,209.521,131.352,256.692c-5.587,28.088-33.802,113.836,6.128,130.681
					c28.414,11.991,112.02-21.058,157.883-41.114c-6.371,17.807-10.762,35.068-10.006,45.558
					C434.104,809.186,362.872,874.948,203.009,825.834z"/>
			</g>
		</g>
		<path fill="#101A22" d="M264.063,590.847c0,0-93.165,27.529-152.361-3.269l6.547,19.908c0,0,65.618,38.81,154.163,15.631
			L264.063,590.847z"/>
		<g>
			<path fill="#D62B2C" d="M353.206,342.389c0,0-18.426,37.852-74.465,47.489c-56.039,9.638-131.532-13.534-147.792-33.059
				l-20.061,18.367l12.125,19.579c0,0-25.274,10.831-22.81,21.367c2.463,10.537,89.888,18.95,180.8-4.99
				c90.912-23.94,94.259-55.872,71.312-51.158C352.314,359.984,371.306,352.407,353.206,342.389z"/>
			<path fill="#D62B2C" d="M279.961,403.425c0,0-39.434,30.6-22.065,51.994c17.369,21.393,40.597,32.869,40.736,34.807
				c0.139,1.938-3.473-17.769-9.905-39.463C282.294,429.067,296.324,420.996,279.961,403.425z"/>
			<path fill="#D62B2C" d="M296.015,399.834c0,0,2.364,19.309,22.372,26.633c20.008,7.325,33.295,32.909,33.295,32.909
				s19.714-20.413,0.685-41.2C333.338,397.388,296.015,399.834,296.015,399.834z"/>
		</g>
		<path fill="#F6B310" d="M194.172,155.16c0,0,24.809-8.849,51.988-1.676c27.179,7.173,35.113,36.186,35.113,36.186
			s52.153,14.14,76.218,64.271c24.065,50.13-4.158,119.733-62.833,136.745c-58.673,17.01-164.719-8.69-195.035-55.711
			c-24.981-38.748-25.151-85.481,13.245-115.275c38.396-29.794,31.741-46.116,31.741-46.116L194.172,155.16z"/>
		<g opacity="0.4">
			<path fill="#F6B310" d="M112.868,219.7c1.355-1.052,2.641-2.082,3.885-3.101c-18.848,28.465-14.772,64.586,5.223,95.6
				c30.315,47.021,136.361,72.721,195.035,55.711c10.941-3.171,20.819-8.176,29.5-14.538c-12.28,17.27-29.94,30.961-51.853,37.314
				c-58.673,17.01-164.719-8.69-195.035-55.711C74.642,296.227,74.473,249.493,112.868,219.7z"/>
			<path fill="#F6B310" d="M163.707,166.485c-3.781,7.128-11.252,16.596-25.707,28.233c9.577-13.797,6.61-21.134,6.61-21.134
				L163.707,166.485z"/>
		</g>
		<path fill="#182A38" d="M177.514,153.755c0,0-39.499,43.192-4.27,72.552c0,0,5.695,4.704-3.561,8.048s-16.613-4.16-23.365-10.004
			c-6.751-5.845-26.054-4.537-35.057,0.09c-9.003,4.628-31.504,5.437-28.484-6.713c3.02-12.149,17.251-10.622,28.828-18.941
			c11.577-8.319,8.443-11.258,13.473-19.169C130.107,171.707,138.916,155.393,177.514,153.755z"/>
		<path fill="#182A38" d="M183.899,162.117c0,0,19.527,16.658,49.187,7.235c29.659-9.423,41.018-6.421,41.018-6.421
			s-11.924-23.965-42.194-15.888C201.639,155.121,183.899,162.117,183.899,162.117z"/>
		<g>
			<path fill="#F6B310" d="M146.244,214.008c0,0,2.542-16.318-9.87-17.035c-12.411-0.718-14.298,27.043-1.208,28.06
				C148.258,226.05,146.244,214.008,146.244,214.008z"/>
			<path fill="#F6B310" d="M133.857,206.865c0,0,2.866-5.016,5.623-1.379c2.757,3.636,1.483,6.223,0.659,9.144
				c-0.824,2.921-0.546,5.944-0.546,5.944s-3.091,1.015-3.11-1.785c-0.02-2.798,0.217-1.719,1.452-4.609
				c1.234-2.889,1.714-6.332,0.633-7.837C137.486,204.838,133.857,206.865,133.857,206.865z"/>
		</g>
		<g>
			<g>
				<path fill="#F8F8EA" d="M95.527,187.176l145.718-39.458l-16.009-48.046c0,0,27.087-16.329,24.736-34.199
					c-2.35-17.871-21.867-26.302-21.867-26.302s0.644-27.155-20.862-36.409c-21.507-9.252-39.962,7.708-39.962,7.708
					s-14.399-13.722-39.594-7.271c-25.196,6.449-26.885,35.223-26.885,35.223S67.154,22.616,44.83,46.126
					C22.504,69.637,33.701,89.763,33.701,89.763S6.632,97.62,0.742,130.345c-5.891,32.726,24.401,52.071,52.362,54.49
					c27.958,2.42,36.715-23.294,36.715-23.294L95.527,187.176z"/>
				<g>
					<path fill="#E2DFCF" d="M184.675,17.5c0,0,12.999-11.94,29.887-10.314c-2.099-1.711-4.521-3.219-7.318-4.424
						c-18.535-7.974-34.804,3.522-38.945,6.85C178.909,12.015,184.675,17.5,184.675,17.5z"/>
					<path fill="#E2DFCF" d="M18.132,137.375c5.893-32.726,32.961-40.582,32.961-40.582S39.896,76.667,62.221,53.157
						c22.323-23.511,55.976-7.705,55.976-7.705s1.687-28.774,26.883-35.225c7.936-2.031,14.802-2.059,20.483-1.146
						c-4.505-3.312-17.738-11.037-37.874-5.882c-25.196,6.449-26.885,35.223-26.885,35.223S67.154,22.616,44.83,46.126
						C22.504,69.637,33.701,89.763,33.701,89.763S6.632,97.62,0.742,130.345c-5.049,28.043,16.473,46.257,40.325,52.419
						C25.36,173.701,14.374,158.265,18.132,137.375z"/>
					<path fill="#E2DFCF" d="M107.209,168.568c0,0-3.262,9.575-12.155,16.49l0.474,2.117l14.926-4.042L107.209,168.568z"/>
				</g>
			</g>
			<path fill="#F9FBEA" d="M256.86,123.144l0.73,24.119c0,0-114.983,11.878-156.5,63.299l-18.176-11.057
				C82.915,199.505,121.031,127.814,256.86,123.144z"/>
		</g>
		<path fill="#FFFFFF" d="M327.537,276.302c0,0,4.958,38.45-45.181,21.806C282.356,298.108,304.58,273.214,327.537,276.302z"/>
		<g>
			<path fill="#F6B310" d="M257.3,218.837c0,0,4.646-7.292,13.194,3.864c8.547,11.157,27.462,26.913,33.183,29.281
				c5.72,2.368,13.138,19.84-3.119,26.318c-16.259,6.477-32.188,9.494-38.555-9.378C255.639,250.048,252.868,221.174,257.3,218.837z
				"/>
			<path fill="#112E46" d="M302.646,279.301c0,0-8.833-10.089-21.073-7.906c-12.238,2.185-32.445,20.882-41.76,33.118
				c-9.315,12.238-27.866,19.274-28.133,6.882c-0.264-12.392,10.474-12.819,10.474-12.819s-16.117-5.425-18.448,10.343
				c-2.332,15.766,14.703,21.218,29.052,15.129c14.345-6.089,44.367-21.371,54.169-29.208c9.804-7.837,22.111-11.979,22.111-11.979
				s10.479-7.193,25.615-3.712c15.133,3.482,22.015-1.043,26.469-9.464c4.455-8.421,0.202-20.119-8.415-20.963
				c-8.615-0.847-5.892,7.342-5.892,7.342s2.336-6.271,5.344-4.161c3.009,2.109,6.126,9.273,3.065,11.319
				c-3.062,2.045-11.7,1.558-17.633-1.987c-5.934-3.546-18.333-9.57-30.159-1.903c-11.827,7.667-4.452,20.497-4.452,20.497"/>
			
				<ellipse transform="matrix(-0.6713 0.7412 -0.7412 -0.6713 629.6389 143.8928)" fill="#112E46" cx="282.91" cy="211.573" rx="7.286" ry="12.385"/>
			
				<ellipse transform="matrix(-0.9436 0.3311 -0.3311 -0.9436 512.851 407.3899)" fill="#112E46" cx="221.724" cy="247.379" rx="7.286" ry="12.386"/>
			<polygon fill="#112E46" points="224.701,217.677 163.451,235.116 212.031,228.879 			"/>
			<polygon fill="#112E46" points="252.073,198.227 295.112,174.631 260.903,200.92 			"/>
		</g>
		<g>
			<polygon fill="#101A22" points="147.535,626.999 222.789,542.686 148.445,474.017 82.839,539.619 			"/>
			<g>
				<g>
					<g>
						<g>
							<g>
								<path fill="#F9FBEA" d="M141.356,525.512l0.247-0.238l0.172,0.181c0.741,0.767,1.515,0.445,2.229-0.243l8.41-8.103
									l-0.041-0.04l-12.835,6.228l-0.21-0.219l6.715-12.581l-0.056-0.056l-8.394,8.09c-0.92,0.886-0.973,1.572-0.34,2.23
									l0.174,0.179l-0.248,0.236l-2.776-2.879l0.248-0.239l0.105,0.11c0.926,0.961,1.547,0.918,2.491,0.006l7.219-6.953
									c0.917-0.886,1.023-1.489,0.086-2.49l-0.106-0.109l0.246-0.238l3.596,3.73l-4.621,8.632c1.66-0.804,2.137-1.077,8.812-4.281
									l3.477,3.607l-0.248,0.239l-0.118-0.125c-0.925-0.961-1.531-0.959-2.505-0.02l-7.23,6.966
									c-0.932,0.899-1.038,1.477-0.06,2.492l0.119,0.123l-0.247,0.237L141.356,525.512z"/>
								<g>
									<g>
										<path fill="#F9FBEA" d="M146.087,530.424l0.247-0.239l0.158,0.164c0.925,0.961,1.533,0.931,2.494,0.007l7.215-6.953
											c0.921-0.887,1.038-1.504,0.086-2.491l-0.118-0.123l0.247-0.238l7.284,7.56l-3.045,2.934l-0.345-0.355l0.507-0.488
											c1.057-1.02,1.443-2.925,0.334-4.077l-1.893-1.962l-4.431,4.269l0.382,0.397c1.324,1.373,2.037,1.346,3.452-0.016
											l0.452-0.437l0.344,0.356l-4.954,4.771l-0.343-0.355l0.522-0.502c1.355-1.309,1.519-2.075,0.16-3.488l-0.372-0.383
											l-4.815,4.639l2.035,2.113c1.35,1.399,3.305,0.519,4.525-0.656l0.508-0.49l0.344,0.356l-3.539,3.412L146.087,530.424z"/>
									</g>
								</g>
								<g>
									<g>
										<path fill="#F9FBEA" d="M173.403,538.678c-0.607-0.632-1.306-0.592-2.229,0.295c-2.906,2.802-5.842,5.604-8.752,8.405
											l-0.581-0.603l3.08-14.158l-7.136,6.847c-0.917,0.885-0.998,1.571-0.39,2.202l0.424,0.439l-0.247,0.239l-3.027-3.145
											l0.247-0.236l0.424,0.438c0.619,0.646,1.311,0.591,2.229-0.295l7.009-6.755c0.729-0.701,1.178-1.742,0.372-2.579
											l-0.251-0.261l0.244-0.238l2.925,3.03l-2.577,11.77l5.638-5.433c0.947-0.912,1.028-1.598,0.406-2.242l-0.438-0.452
											l0.247-0.239l3.04,3.154l-0.245,0.238L173.403,538.678z"/>
									</g>
								</g>
								<g>
									<g>
										<path fill="#F9FBEA" d="M183.026,548.663c-0.621-0.646-1.298-0.577-2.215,0.309l-5.707,5.5
											c-2.155,2.074-4.214,2.022-6.171-0.007c-1.972-2.045-2.438-4.425-0.187-6.594l5.706-5.524
											c0.921-0.887,1.053-1.49,0.087-2.491l-0.118-0.125l0.245-0.237l4.298,4.459l-0.246,0.239l-0.172-0.18
											c-0.636-0.657-1.323-0.631-2.243,0.255l-5.953,5.737c-1.373,1.321-2.198,2.99-0.73,4.514
											c1.466,1.522,3.411,1.261,4.893-0.164l5.927-5.713c0.947-0.912,1.026-1.597,0.394-2.256l-0.41-0.425l0.246-0.237
											l3.027,3.142l-0.247,0.237L183.026,548.663z"/>
									</g>
								</g>
							</g>
						</g>
						<g>
							<g>
								<g>
									<g>
										<path fill="#F9FBEA" d="M172.399,569.667c-1.197-1.263-1.919-4.013-2.623-6.687c-0.621-2.371-1.208-4.608-2.081-5.656
											c-0.449-0.66-1.045-1.029-1.68-1.042c-0.535-0.012-1.045,0.24-1.362,0.669c-0.187,0.248-0.262,0.557-0.212,0.867
											c0.049,0.311,0.215,0.586,0.47,0.773c0.146,0.11,0.329,0.157,0.512,0.131c0.18-0.024,0.34-0.119,0.447-0.264
											c0.062-0.082,0.086-0.185,0.07-0.288c-0.018-0.103-0.073-0.193-0.156-0.256c-0.048-0.036-0.104-0.051-0.161-0.043
											c-0.057,0.009-0.105,0.038-0.14,0.082c-0.034,0.048-0.023,0.114,0.023,0.152c0.021,0.016,0.026,0.047,0.011,0.069
											s-0.048,0.026-0.07,0.01c-0.094-0.067-0.113-0.198-0.047-0.291c0.051-0.066,0.124-0.11,0.208-0.121
											c0.083-0.013,0.168,0.008,0.235,0.06c0.104,0.078,0.175,0.192,0.194,0.322c0.022,0.13-0.011,0.26-0.086,0.363
											c-0.126,0.168-0.308,0.276-0.518,0.304c-0.205,0.03-0.414-0.022-0.583-0.149c-0.276-0.205-0.458-0.502-0.511-0.839
											s0.028-0.672,0.23-0.943c0.337-0.456,0.878-0.722,1.445-0.71c0.668,0.014,1.294,0.398,1.758,1.085
											c0.886,1.059,1.477,3.308,2.1,5.689c0.835,3.174,1.695,6.456,3.329,7.179c0.534,0.236,1.113,0.186,1.769-0.157
											c0.023-0.014,0.056-0.003,0.065,0.021c0.015,0.024,0.004,0.056-0.019,0.068c-0.676,0.352-1.299,0.405-1.854,0.16
											C172.889,570.104,172.635,569.914,172.399,569.667z"/>
									</g>
									<g>
										<path fill="#F9FBEA" d="M171.364,569.336C171.363,569.336,171.363,569.335,171.364,569.336
											c-0.765-0.85-1.288-2.559-1.796-4.21c-0.472-1.537-0.918-2.99-1.516-3.651c-0.313-0.419-0.708-0.644-1.12-0.634
											c-0.345,0.007-0.667,0.183-0.861,0.47c-0.232,0.342-0.139,0.812,0.209,1.047c0.097,0.066,0.216,0.091,0.331,0.07
											c0.112-0.022,0.207-0.086,0.271-0.18c0.073-0.107,0.044-0.255-0.065-0.331c-0.029-0.02-0.063-0.025-0.097-0.021
											c-0.029,0.007-0.059,0.023-0.075,0.052c-0.009,0.011-0.011,0.023-0.009,0.038c0.003,0.015,0.011,0.026,0.023,0.036
											c0.024,0.016,0.029,0.046,0.012,0.07c-0.015,0.022-0.046,0.029-0.07,0.013c-0.033-0.024-0.056-0.06-0.064-0.102
											c-0.007-0.039,0.002-0.08,0.025-0.113c0.032-0.049,0.082-0.082,0.141-0.093c0.06-0.012,0.12,0.001,0.171,0.036
											c0.155,0.106,0.197,0.317,0.094,0.472c-0.078,0.115-0.199,0.194-0.336,0.221c-0.143,0.025-0.286-0.004-0.407-0.086
											c-0.394-0.267-0.499-0.799-0.237-1.187c0.212-0.313,0.565-0.504,0.942-0.514c0.446-0.009,0.873,0.229,1.202,0.672
											c0.609,0.673,1.06,2.134,1.533,3.684c0.506,1.642,1.025,3.339,1.774,4.172c0.019,0.021,0.018,0.052-0.004,0.072
											C171.415,569.357,171.384,569.356,171.364,569.336z"/>
									</g>
									<g>
										<path fill="#F9FBEA" d="M169.691,570.304c-1.402-1.479-2.494-3.429-3.875-5.898c-2.604-4.665-6.542-11.712-16.227-21.912
											c-9.686-10.2-16.52-14.5-21.043-17.343c-2.395-1.507-4.286-2.697-5.689-4.175c-1.403-1.477-2.001-3.179-1.686-4.794
											c0.27-1.367,1.19-2.526,2.465-3.101c0.757-0.344,1.605-0.365,2.388-0.063c0.783,0.304,1.405,0.894,1.752,1.665
											c0.444,0.981,0.019,2.135-0.945,2.572c-0.297,0.133-0.625,0.141-0.928,0.022c-0.304-0.117-0.544-0.346-0.677-0.645
											c-0.088-0.191-0.097-0.404-0.024-0.601s0.218-0.353,0.406-0.438c0.262-0.118,0.573,0.001,0.691,0.266
											c0.031,0.066,0.002,0.148-0.066,0.177c-0.068,0.033-0.148,0.001-0.178-0.065c-0.058-0.13-0.208-0.189-0.336-0.133
											c-0.123,0.057-0.218,0.157-0.266,0.287c-0.047,0.129-0.043,0.27,0.016,0.396c0.105,0.234,0.293,0.413,0.53,0.505
											c0.233,0.092,0.49,0.086,0.719-0.018c0.83-0.376,1.195-1.37,0.814-2.217c-0.32-0.705-0.889-1.247-1.605-1.523
											c-0.715-0.278-1.489-0.259-2.179,0.056c-1.198,0.539-2.062,1.627-2.313,2.907c-0.299,1.528,0.274,3.146,1.614,4.557
											c1.382,1.455,3.26,2.637,5.642,4.132c4.53,2.853,11.384,7.16,21.092,17.385s13.654,17.291,16.268,21.966
											c1.371,2.454,2.454,4.392,3.835,5.847c1.34,1.411,2.926,2.069,4.468,1.849c1.291-0.184,2.42-0.988,3.022-2.155
											c0.349-0.676,0.408-1.449,0.168-2.177c-0.239-0.728-0.751-1.325-1.438-1.681c-0.825-0.426-1.837-0.111-2.256,0.699
											c-0.235,0.458-0.047,1.028,0.423,1.271c0.123,0.064,0.265,0.077,0.395,0.036c0.132-0.04,0.238-0.128,0.3-0.25
											c0.064-0.123,0.012-0.275-0.114-0.342c-0.065-0.034-0.093-0.115-0.058-0.182c0.033-0.065,0.116-0.092,0.18-0.058
											c0.26,0.134,0.362,0.45,0.231,0.704c-0.095,0.185-0.259,0.322-0.457,0.384c-0.2,0.063-0.414,0.043-0.602-0.053
											c-0.6-0.311-0.841-1.044-0.536-1.634c0.487-0.942,1.662-1.308,2.617-0.815c0.751,0.388,1.31,1.041,1.572,1.837
											c0.262,0.797,0.196,1.643-0.186,2.382c-0.64,1.243-1.846,2.103-3.226,2.3
											C172.762,572.466,171.095,571.781,169.691,570.304z"/>
									</g>
									<g>
										<path fill="#F9FBEA" d="M123.633,518.303c-0.234-0.247-0.41-0.509-0.517-0.79c-0.218-0.568-0.132-1.189,0.254-1.845
											c0.014-0.024,0.045-0.031,0.068-0.018c0.024,0.015,0.033,0.045,0.02,0.069c-0.376,0.637-0.458,1.211-0.248,1.757
											c0.635,1.669,3.87,2.699,6.995,3.697c2.347,0.746,4.563,1.452,5.578,2.394c0.657,0.498,1.008,1.141,0.987,1.81
											c-0.019,0.566-0.311,1.093-0.782,1.406c-0.584,0.387-1.375,0.221-1.768-0.37c-0.117-0.176-0.158-0.386-0.119-0.593
											c0.039-0.206,0.156-0.383,0.331-0.498c0.107-0.072,0.238-0.097,0.368-0.07c0.128,0.027,0.237,0.104,0.313,0.214
											c0.045,0.069,0.063,0.154,0.047,0.238c-0.018,0.082-0.064,0.152-0.133,0.199c-0.096,0.062-0.227,0.035-0.289-0.063
											c-0.017-0.023-0.01-0.055,0.016-0.069c0.022-0.015,0.053-0.008,0.066,0.015c0.035,0.05,0.103,0.063,0.15,0.031
											c0.047-0.03,0.079-0.077,0.092-0.134c0.011-0.057-0.002-0.114-0.034-0.163c-0.059-0.088-0.148-0.146-0.249-0.17
											c-0.103-0.021-0.205-0.002-0.292,0.056c-0.15,0.1-0.253,0.255-0.287,0.433c-0.035,0.181,0.001,0.364,0.104,0.518
											c0.361,0.545,1.091,0.699,1.627,0.344c0.445-0.296,0.723-0.792,0.737-1.326c0.021-0.636-0.316-1.25-0.951-1.73
											c-1.003-0.927-3.208-1.632-5.543-2.374C127.543,520.429,124.832,519.565,123.633,518.303z"/>
									</g>
									<g>
										<path fill="#F9FBEA" d="M123.91,519.354c-0.02-0.021-0.02-0.051,0.001-0.07c0.02-0.019,0.052-0.019,0.07-0.001
											c0.795,0.792,2.461,1.399,4.075,1.988c1.521,0.556,2.958,1.08,3.604,1.727c0.419,0.35,0.637,0.786,0.604,1.23
											c-0.028,0.377-0.239,0.72-0.562,0.916c-0.401,0.24-0.928,0.107-1.173-0.299c-0.075-0.124-0.099-0.27-0.063-0.41
											c0.032-0.136,0.118-0.252,0.235-0.324c0.159-0.096,0.37-0.042,0.468,0.119c0.031,0.053,0.041,0.112,0.026,0.172
											c-0.016,0.058-0.05,0.105-0.101,0.135c-0.034,0.023-0.074,0.029-0.115,0.02c-0.041-0.012-0.075-0.037-0.096-0.07
											c-0.015-0.025-0.009-0.057,0.015-0.071c0.025-0.014,0.055-0.005,0.07,0.017c0.009,0.014,0.021,0.022,0.034,0.026
											c0.014,0.003,0.027,0.002,0.04-0.005c0.028-0.019,0.048-0.044,0.055-0.075c0.008-0.033,0.001-0.066-0.015-0.096
											c-0.07-0.113-0.217-0.152-0.329-0.084c-0.097,0.059-0.162,0.15-0.191,0.262c-0.028,0.115-0.011,0.233,0.053,0.334
											c0.219,0.358,0.68,0.478,1.036,0.264c0.294-0.179,0.485-0.493,0.512-0.836c0.03-0.41-0.174-0.818-0.57-1.149
											c-0.636-0.634-2.062-1.154-3.571-1.705c-1.624-0.594-3.303-1.207-4.11-2.012L123.91,519.354z"/>
									</g>
									<g>
										<g>
											<path fill="#F9FBEA" d="M172.944,568.881c-0.237-0.249-0.44-0.563-0.586-0.925c-0.218-0.548-0.27-1.124-0.148-1.622
												c0.122-0.503,0.41-0.87,0.808-1.027c0.026-0.01,0.057,0.003,0.065,0.028c0.01,0.026-0.001,0.056-0.027,0.065
												c-0.367,0.146-0.632,0.485-0.747,0.957c-0.116,0.478-0.064,1.033,0.145,1.56c0.432,1.084,1.404,1.719,2.168,1.416
												c0.025-0.011,0.055,0.002,0.065,0.027c0.013,0.026-0.002,0.057-0.027,0.066
												C174.103,569.647,173.447,569.412,172.944,568.881z"/>
										</g>
										<g>
											<path fill="#F9FBEA" d="M171.343,564.855c-0.238-0.249-0.442-0.563-0.585-0.927c-0.454-1.136-0.157-2.323,0.657-2.648
												c0.026-0.01,0.055,0.004,0.066,0.03c0.011,0.023-0.003,0.054-0.029,0.063c-0.763,0.305-1.033,1.435-0.603,2.519
												c0.433,1.083,1.405,1.718,2.168,1.414c0.026-0.01,0.057,0.003,0.065,0.028c0.01,0.026-0.001,0.056-0.027,0.065
												C172.501,565.621,171.845,565.385,171.343,564.855z"/>
										</g>
									</g>
									<g>
										<g>
											<path fill="#F9FBEA" d="M124.771,517.946c-0.13-0.137-0.241-0.284-0.331-0.44c-0.259-0.449-0.302-0.911-0.123-1.299
												c0.013-0.025,0.042-0.038,0.067-0.025c0.024,0.011,0.038,0.041,0.024,0.065c-0.164,0.359-0.123,0.79,0.119,1.211
												c0.246,0.425,0.665,0.79,1.182,1.028c0.518,0.237,1.067,0.316,1.55,0.225c0.479-0.091,0.831-0.337,0.996-0.696
												c0.01-0.024,0.04-0.035,0.066-0.024c0.024,0.012,0.034,0.042,0.024,0.066c-0.179,0.391-0.559,0.657-1.066,0.754
												c-0.505,0.096-1.075,0.014-1.612-0.233C125.317,518.417,125.012,518.2,124.771,517.946z"/>
										</g>
										<g>
											<path fill="#F9FBEA" d="M128.71,519.755c-0.505-0.53-0.704-1.196-0.455-1.74c0.01-0.024,0.04-0.035,0.066-0.024
												c0.024,0.012,0.034,0.042,0.024,0.066c-0.342,0.747,0.242,1.753,1.301,2.238c1.059,0.486,2.201,0.276,2.545-0.471
												c0.012-0.026,0.041-0.036,0.065-0.025c0.024,0.013,0.039,0.041,0.025,0.067c-0.365,0.797-1.568,1.032-2.678,0.52
												C129.248,520.225,128.947,520.005,128.71,519.755z"/>
										</g>
									</g>
								</g>
								<g>
									<g>
										<path fill="#F9FBEA" d="M145.629,497.418c1.198,1.264,1.921,4.014,2.623,6.688c0.62,2.371,1.209,4.61,2.083,5.655
											c0.449,0.661,1.045,1.031,1.681,1.043c0.531,0.013,1.043-0.238,1.362-0.669c0.186-0.249,0.259-0.558,0.213-0.867
											c-0.051-0.311-0.218-0.585-0.473-0.773c-0.146-0.11-0.329-0.157-0.512-0.132c-0.18,0.026-0.337,0.12-0.446,0.264
											c-0.062,0.084-0.087,0.187-0.07,0.29c0.018,0.102,0.071,0.193,0.156,0.256c0.047,0.035,0.105,0.051,0.163,0.042
											c0.055-0.009,0.105-0.038,0.137-0.082c0.035-0.047,0.024-0.114-0.025-0.151c-0.021-0.018-0.026-0.049-0.009-0.07
											c0.016-0.022,0.049-0.026,0.069-0.01c0.096,0.066,0.115,0.199,0.047,0.292c-0.051,0.066-0.123,0.108-0.206,0.121
											c-0.083,0.012-0.166-0.01-0.235-0.061c-0.105-0.078-0.176-0.194-0.195-0.322c-0.021-0.129,0.011-0.259,0.088-0.363
											c0.123-0.166,0.307-0.274,0.516-0.305c0.207-0.028,0.415,0.023,0.585,0.15c0.273,0.204,0.456,0.502,0.509,0.839
											c0.054,0.336-0.029,0.672-0.229,0.943c-0.339,0.455-0.879,0.722-1.445,0.711c-0.669-0.014-1.295-0.399-1.76-1.084
											c-0.882-1.061-1.475-3.311-2.099-5.69c-0.835-3.175-1.696-6.456-3.329-7.181c-0.533-0.235-1.112-0.185-1.768,0.158
											c-0.023,0.014-0.056,0.003-0.068-0.022c-0.013-0.023-0.004-0.054,0.021-0.067c0.674-0.352,1.299-0.406,1.855-0.159
											C145.142,496.982,145.396,497.172,145.629,497.418z"/>
									</g>
									<g>
										<path fill="#F9FBEA" d="M146.667,497.749L146.667,497.749c0.763,0.851,1.287,2.56,1.793,4.211
											c0.473,1.539,0.917,2.99,1.517,3.652c0.313,0.417,0.71,0.643,1.121,0.632c0.345-0.007,0.667-0.182,0.861-0.468
											c0.232-0.342,0.138-0.812-0.21-1.048c-0.096-0.067-0.215-0.091-0.33-0.069c-0.113,0.021-0.209,0.085-0.271,0.179
											c-0.074,0.107-0.044,0.256,0.066,0.332c0.028,0.019,0.062,0.024,0.095,0.02c0.029-0.006,0.059-0.024,0.077-0.051
											c0.007-0.011,0.01-0.025,0.008-0.039c-0.004-0.014-0.012-0.025-0.023-0.035c-0.023-0.016-0.029-0.048-0.014-0.071
											c0.017-0.022,0.047-0.027,0.071-0.013c0.033,0.023,0.058,0.059,0.065,0.1c0.007,0.042-0.003,0.082-0.023,0.113
											c-0.035,0.051-0.084,0.085-0.143,0.095c-0.06,0.013-0.12-0.001-0.17-0.035c-0.157-0.107-0.198-0.319-0.095-0.472
											c0.078-0.114,0.199-0.194,0.337-0.222c0.142-0.025,0.286,0.004,0.406,0.085c0.394,0.268,0.498,0.799,0.235,1.188
											c-0.211,0.312-0.564,0.505-0.941,0.512c-0.445,0.011-0.873-0.228-1.202-0.67c-0.608-0.674-1.058-2.137-1.533-3.685
											c-0.505-1.641-1.025-3.339-1.775-4.171c-0.018-0.021-0.016-0.053,0.005-0.071S146.646,497.729,146.667,497.749z"/>
									</g>
									<g>
										<path fill="#F9FBEA" d="M148.339,496.781c1.404,1.479,2.493,3.431,3.874,5.9c2.604,4.663,6.542,11.711,16.228,21.912
											c9.685,10.2,16.519,14.498,21.04,17.343c2.396,1.506,4.289,2.694,5.693,4.173c1.402,1.478,2,3.18,1.684,4.794
											c-0.268,1.366-1.189,2.527-2.463,3.103c-0.759,0.342-1.605,0.363-2.39,0.062c-0.782-0.305-1.404-0.894-1.753-1.665
											c-0.443-0.98-0.018-2.136,0.948-2.572c0.295-0.132,0.624-0.141,0.927-0.022c0.303,0.117,0.545,0.346,0.677,0.645
											c0.088,0.191,0.097,0.404,0.023,0.601c-0.073,0.197-0.218,0.354-0.407,0.439c-0.262,0.117-0.57-0.003-0.689-0.268
											c-0.032-0.068-0.002-0.147,0.066-0.179c0.066-0.03,0.146,0,0.177,0.067c0.058,0.131,0.21,0.189,0.337,0.133
											c0.123-0.056,0.217-0.156,0.264-0.286c0.048-0.129,0.045-0.271-0.014-0.397c-0.105-0.234-0.296-0.411-0.53-0.505
											c-0.235-0.092-0.491-0.084-0.72,0.018c-0.829,0.376-1.195,1.369-0.813,2.218c0.319,0.705,0.89,1.246,1.604,1.523
											c0.716,0.277,1.491,0.258,2.183-0.056c1.195-0.54,2.06-1.628,2.311-2.909c0.297-1.525-0.276-3.144-1.615-4.556
											c-1.383-1.454-3.261-2.636-5.641-4.132c-4.531-2.852-11.385-7.16-21.093-17.385
											c-9.709-10.226-13.654-17.291-16.267-21.967c-1.37-2.453-2.456-4.393-3.836-5.845c-1.341-1.412-2.928-2.069-4.465-1.851
											c-1.294,0.185-2.425,0.991-3.024,2.157c-0.349,0.676-0.408,1.448-0.168,2.175c0.238,0.73,0.75,1.325,1.438,1.682
											c0.827,0.424,1.837,0.112,2.256-0.698c0.235-0.46,0.046-1.029-0.423-1.271c-0.123-0.064-0.265-0.076-0.396-0.036
											c-0.132,0.041-0.237,0.129-0.299,0.249c-0.063,0.124-0.012,0.277,0.114,0.343c0.065,0.035,0.093,0.115,0.059,0.181
											c-0.034,0.067-0.115,0.092-0.181,0.059c-0.261-0.133-0.363-0.449-0.23-0.705c0.095-0.184,0.258-0.32,0.456-0.382
											c0.2-0.063,0.416-0.043,0.602,0.054c0.6,0.309,0.841,1.042,0.537,1.633c-0.487,0.942-1.661,1.308-2.618,0.813
											c-0.75-0.387-1.309-1.038-1.571-1.835c-0.262-0.799-0.195-1.645,0.185-2.383c0.64-1.242,1.846-2.104,3.226-2.3
											C145.268,494.62,146.937,495.304,148.339,496.781z"/>
									</g>
									<g>
										<path fill="#F9FBEA" d="M194.396,548.782c0.234,0.248,0.411,0.51,0.518,0.792c0.217,0.567,0.131,1.188-0.254,1.844
											c-0.017,0.023-0.045,0.032-0.068,0.018c-0.024-0.013-0.034-0.044-0.02-0.069c0.375-0.637,0.457-1.211,0.248-1.758
											c-0.638-1.668-3.871-2.698-6.997-3.696c-2.345-0.746-4.561-1.453-5.576-2.394c-0.658-0.496-1.009-1.141-0.987-1.81
											c0.018-0.567,0.312-1.093,0.784-1.407c0.581-0.387,1.372-0.22,1.765,0.372c0.116,0.175,0.158,0.385,0.119,0.593
											c-0.04,0.206-0.155,0.383-0.329,0.498c-0.109,0.072-0.24,0.097-0.369,0.069c-0.128-0.027-0.238-0.104-0.313-0.213
											c-0.045-0.07-0.064-0.155-0.047-0.238c0.018-0.084,0.064-0.153,0.133-0.199c0.096-0.063,0.227-0.035,0.29,0.061
											c0.016,0.024,0.009,0.055-0.015,0.069c-0.022,0.016-0.054,0.009-0.068-0.013c-0.035-0.05-0.103-0.063-0.15-0.032
											c-0.046,0.03-0.079,0.077-0.09,0.135c-0.012,0.055,0,0.113,0.032,0.163c0.059,0.088,0.146,0.147,0.249,0.17
											c0.103,0.021,0.206,0,0.292-0.056c0.152-0.101,0.253-0.255,0.288-0.435c0.033-0.18-0.004-0.363-0.105-0.517
											c-0.361-0.545-1.091-0.699-1.625-0.345c-0.447,0.297-0.725,0.793-0.739,1.329c-0.021,0.634,0.316,1.247,0.951,1.729
											c1.003,0.928,3.208,1.633,5.543,2.375C190.488,546.656,193.197,547.521,194.396,548.782z"/>
									</g>
									<g>
										<path fill="#F9FBEA" d="M194.119,547.731c0.02,0.02,0.02,0.052,0,0.07c-0.021,0.02-0.053,0.02-0.073,0.001
											c-0.792-0.792-2.46-1.399-4.073-1.988c-1.521-0.556-2.957-1.079-3.603-1.727c-0.421-0.35-0.637-0.785-0.604-1.231
											c0.027-0.376,0.236-0.719,0.561-0.915c0.401-0.241,0.928-0.107,1.173,0.299c0.076,0.125,0.099,0.271,0.066,0.409
											c-0.034,0.138-0.12,0.254-0.239,0.325c-0.156,0.095-0.368,0.043-0.467-0.117c-0.031-0.055-0.04-0.113-0.026-0.174
											c0.016-0.058,0.049-0.104,0.102-0.136c0.033-0.021,0.075-0.029,0.115-0.017c0.041,0.01,0.072,0.034,0.095,0.069
											c0.015,0.024,0.008,0.055-0.015,0.068c-0.026,0.016-0.055,0.007-0.07-0.016c-0.008-0.014-0.02-0.021-0.033-0.024
											c-0.015-0.005-0.029-0.002-0.041,0.006c-0.027,0.016-0.047,0.042-0.054,0.073c-0.008,0.032-0.004,0.066,0.015,0.095
											c0.069,0.115,0.216,0.153,0.327,0.085c0.097-0.059,0.165-0.151,0.192-0.263c0.028-0.112,0.011-0.231-0.053-0.333
											c-0.217-0.358-0.682-0.479-1.034-0.264c-0.296,0.179-0.487,0.492-0.514,0.837c-0.03,0.41,0.174,0.818,0.572,1.148
											c0.632,0.635,2.059,1.154,3.57,1.705c1.623,0.594,3.303,1.206,4.111,2.011
											C194.119,547.729,194.119,547.73,194.119,547.731z"/>
									</g>
									<g>
										<g>
											<path fill="#F9FBEA" d="M145.085,498.206c0.237,0.249,0.44,0.563,0.586,0.925c0.218,0.547,0.271,1.122,0.149,1.622
												c-0.123,0.502-0.411,0.869-0.809,1.027c-0.026,0.009-0.056-0.003-0.064-0.03c-0.011-0.024,0.001-0.054,0.026-0.064
												c0.368-0.146,0.633-0.486,0.748-0.959c0.117-0.476,0.064-1.029-0.146-1.559c-0.431-1.083-1.402-1.718-2.166-1.415
												c-0.026,0.01-0.056-0.002-0.066-0.027c-0.01-0.026,0.003-0.057,0.029-0.066
												C143.927,497.438,144.581,497.674,145.085,498.206z"/>
										</g>
										<g>
											<path fill="#F9FBEA" d="M146.688,502.231c0.237,0.249,0.442,0.563,0.586,0.925c0.45,1.137,0.156,2.324-0.659,2.65
												c-0.025,0.009-0.057-0.004-0.064-0.029c-0.012-0.026,0.001-0.056,0.025-0.065c0.765-0.305,1.035-1.434,0.605-2.518
												c-0.434-1.083-1.404-1.719-2.169-1.414c-0.026,0.009-0.056-0.003-0.064-0.03c-0.011-0.024,0.001-0.054,0.026-0.064
												C145.53,501.467,146.185,501.701,146.688,502.231z"/>
										</g>
									</g>
									<g>
										<g>
											<path fill="#F9FBEA" d="M193.259,549.14c0.13,0.138,0.241,0.285,0.331,0.439c0.258,0.45,0.301,0.914,0.123,1.301
												c-0.014,0.025-0.042,0.037-0.066,0.025c-0.025-0.011-0.037-0.041-0.025-0.066c0.165-0.36,0.121-0.789-0.119-1.21
												c-0.246-0.426-0.665-0.792-1.182-1.028c-0.516-0.238-1.066-0.317-1.549-0.227c-0.478,0.09-0.832,0.338-0.996,0.697
												c-0.011,0.025-0.041,0.036-0.066,0.025c-0.025-0.013-0.035-0.043-0.025-0.068c0.18-0.389,0.558-0.656,1.068-0.753
												c0.502-0.095,1.074-0.013,1.611,0.233C192.711,548.669,193.018,548.886,193.259,549.14z"/>
										</g>
										<g>
											<path fill="#F9FBEA" d="M189.319,547.33c0.504,0.531,0.706,1.198,0.456,1.741c-0.011,0.025-0.041,0.036-0.066,0.025
												c-0.025-0.013-0.035-0.043-0.025-0.068c0.343-0.747-0.24-1.751-1.3-2.237c-1.062-0.486-2.203-0.275-2.545,0.471
												c-0.012,0.024-0.043,0.037-0.068,0.025c-0.024-0.013-0.037-0.042-0.024-0.067c0.364-0.796,1.569-1.031,2.68-0.519
												C188.781,546.862,189.082,547.081,189.319,547.33z"/>
										</g>
									</g>
								</g>
							</g>
						</g>
					</g>
					<g>
						<path fill="#F9FBEA" d="M135.001,533.093c0.175,0.137,0.374,0.31,0.571,0.516c0.356,0.379,0.526,0.729,0.528,1.064
							c0.007,0.338-0.129,0.665-0.458,0.978c-0.331,0.314-0.699,0.469-1.066,0.457c-0.371-0.009-0.77-0.225-1.144-0.619
							c-0.18-0.187-0.318-0.354-0.427-0.5L135.001,533.093z M133.454,535.059c0.052,0.078,0.139,0.177,0.238,0.279
							c0.532,0.561,1.132,0.568,1.682,0.047c0.479-0.451,0.528-1.011,0.002-1.566c-0.128-0.135-0.237-0.226-0.319-0.281
							L133.454,535.059z"/>
						<path fill="#F9FBEA" d="M137.182,535.335l-2.029,1.929l-0.25-0.263l2.031-1.928L137.182,535.335z"/>
						<path fill="#F9FBEA" d="M135.586,537.721l2.03-1.929l0.272,0.287l-0.409,1.626c-0.095,0.376-0.197,0.697-0.314,0.991
							l0.008,0.002c0.249-0.28,0.491-0.521,0.808-0.821l0.848-0.807l0.235,0.247l-2.03,1.928l-0.253-0.266l0.421-1.624
							c0.09-0.354,0.192-0.71,0.317-1.021l-0.014-0.008c-0.24,0.259-0.479,0.497-0.817,0.817l-0.866,0.823L135.586,537.721z"/>
						<path fill="#F9FBEA" d="M139.419,539.85l-0.75-0.788l-0.733,0.695l0.837,0.879l-0.22,0.209l-1.083-1.143l2.028-1.927
							l1.043,1.097l-0.221,0.208l-0.793-0.834l-0.642,0.609l0.749,0.789L139.419,539.85z"/>
						<path fill="#F9FBEA" d="M140.588,540.71l-0.194,0.186l-0.706-0.744l0.194-0.187L140.588,540.71z"/>
						<path fill="#F9FBEA" d="M142.033,540.443l-2.031,1.928l-0.248-0.261l2.029-1.929L142.033,540.443z"/>
						<path fill="#F9FBEA" d="M140.437,542.83l2.031-1.929l0.27,0.286l-0.409,1.628c-0.094,0.376-0.195,0.695-0.313,0.989
							l0.011,0.003c0.247-0.28,0.486-0.521,0.804-0.821l0.85-0.807l0.234,0.246l-2.03,1.928l-0.252-0.266l0.419-1.621
							c0.09-0.356,0.194-0.713,0.317-1.023l-0.012-0.006c-0.243,0.258-0.479,0.496-0.817,0.816l-0.867,0.823L140.437,542.83z"/>
						<path fill="#F9FBEA" d="M142.584,545.334l2.981-1.232l0.195,0.203l-2.982,1.23L142.584,545.334z"/>
						<path fill="#F9FBEA" d="M146.568,545.668l-0.585-0.617l0.223-0.211l1.427,1.503l-0.224,0.212l-0.588-0.62l-1.806,1.715
							l-0.255-0.265L146.568,545.668z"/>
						<path fill="#F9FBEA" d="M146.554,547.992l-0.841,0.396l-0.257-0.271l2.687-1.237l0.3,0.316l-1.372,2.62l-0.265-0.28
							l0.431-0.824L146.554,547.992z M147.389,548.464l0.396-0.753c0.09-0.173,0.183-0.317,0.271-0.458l-0.006-0.006
							c-0.15,0.084-0.305,0.168-0.466,0.246l-0.775,0.359L147.389,548.464z"/>
						<path fill="#F9FBEA" d="M149.384,548.187l0.249,0.262l-0.98,0.929l0.01,0.01c0.13-0.02,0.253-0.033,0.368-0.046l1.352-0.104
							l0.308,0.325l-1.56,0.083l-0.417,1.902l-0.293-0.31l0.362-1.616l-0.407,0.019l-0.773,0.734l-0.249-0.262L149.384,548.187z"/>
						<path fill="#F9FBEA" d="M150.853,551.894l-0.748-0.788l-0.733,0.694l0.835,0.879l-0.219,0.21l-1.085-1.142l2.031-1.928
							l1.041,1.096l-0.219,0.209l-0.794-0.835l-0.642,0.61l0.749,0.788L150.853,551.894z"/>
						<path fill="#F9FBEA" d="M152.024,552.754l-0.196,0.185l-0.706-0.744l0.194-0.185L152.024,552.754z"/>
						<path fill="#F9FBEA" d="M153.872,554.904c-0.699,0.664-1.473,0.592-1.966,0.072c-0.509-0.535-0.449-1.307,0.164-1.89
							c0.646-0.611,1.446-0.612,1.963-0.069C154.558,553.572,154.475,554.333,153.872,554.904z M152.342,553.362
							c-0.433,0.411-0.598,1.015-0.205,1.428c0.393,0.415,0.999,0.285,1.461-0.151c0.403-0.383,0.624-0.994,0.209-1.431
							C153.394,552.774,152.789,552.938,152.342,553.362z"/>
						<path fill="#F9FBEA" d="M155.438,554.563l-1.202,1.141c-0.455,0.433-0.456,0.817-0.198,1.088
							c0.285,0.301,0.668,0.305,1.116-0.12l1.202-1.142l0.251,0.265l-1.184,1.124c-0.623,0.592-1.192,0.508-1.609,0.068
							c-0.395-0.416-0.454-0.955,0.178-1.553l1.193-1.137L155.438,554.563z"/>
						<path fill="#F9FBEA" d="M157.183,556.848l-0.586-0.616l0.223-0.213l1.428,1.503l-0.223,0.212l-0.59-0.62l-1.807,1.716
							l-0.253-0.267L157.183,556.848z"/>
					</g>
				</g>
			</g>
		</g>
		<path fill="#F9FBEA" d="M119.324,408.669c0,0-113.4,64.266-115.674,144.249C1.375,632.899,73.777,694.89,73.777,694.89
			l65.979-87.291l-14.79-74.182L119.324,408.669z"/>
		<path fill="#F6B310" d="M139.755,607.599c0,0,24.75-5.28,30.955,6.488c6.206,11.77-0.917,24.456-0.917,24.456
			s9.897,0.504,9.531,10.636c-0.365,10.133-8.097,14.342-8.097,14.342l-12.519,0.293c0,0,8.697,2.418,9.821,2.823
			c1.125,0.405,5.592,3.251,1.404,16.093c-4.188,12.84-18.256,11.905-18.256,11.905l-11.683-3.298l6.147,4.915
			c0,0-5.861,9.19-22.058,9.138c-16.197-0.052-28.988-8.007-31.82-34.959L139.755,607.599z"/>
		<g>
			<circle fill="#1B3142" cx="306.416" cy="436.037" r="5.464"/>
			<circle fill="#1B3142" cx="332.408" cy="462.225" r="5.464"/>
			<circle fill="#1B3142" cx="349.895" cy="502.159" r="5.464"/>
		</g>
		<path opacity="0.4" fill="#D62B2C" d="M110.888,375.186c0,0,72.112,41.071,162.439,24.885c0,0-71.219,17.789-150.314-5.306
			L110.888,375.186z"/>
		<path opacity="0.4" fill="#D62B2C" d="M352.314,359.984c0,0-16.244,34.771-62.112,40.268c0,0,46.353,0.311,67.716-40.672
			L352.314,359.984z"/>
	</g>
</g>
</svg>
