<?xml version="1.0" encoding="utf-8"?>
<!-- Generator: Adobe Illustrator 16.0.3, SVG Export Plug-In . SVG Version: 6.00 Build 0)  -->
<!DOCTYPE svg PUBLIC "-//W3C//DTD SVG 1.1//EN" "http://www.w3.org/Graphics/SVG/1.1/DTD/svg11.dtd">
<svg version="1.1" id="Capa_1" xmlns="http://www.w3.org/2000/svg" xmlns:xlink="http://www.w3.org/1999/xlink" x="0px" y="0px"
	 width="189.641px" height="201.472px" viewBox="0 0 189.641 201.472" enable-background="new 0 0 189.641 201.472"
	 xml:space="preserve">
<g opacity="0.4">
	<path fill="#F7F9E7" d="M184.659,98.775c6.643,6.643,6.643,17.413,0,24.056l-73.66,73.66c-6.643,6.643-17.412,6.643-24.056,0
		l-73.659-73.66c-6.644-6.643-6.644-17.413-0.001-24.056l73.66-73.66c6.644-6.643,17.413-6.643,24.056,0L184.659,98.775z"/>
	<path fill="#F1F2E1" d="M184.572,98.328c6.643,6.643,6.643,17.413,0,24.056l-73.66,73.66c-6.643,6.643-17.412,6.643-24.055,0
		l-73.659-73.66c-6.644-6.643-6.644-17.413-0.001-24.056l73.66-73.66c6.644-6.643,17.413-6.643,24.055,0L184.572,98.328z"/>
	<path fill="#EAEBDA" d="M184.486,97.88c6.643,6.643,6.643,17.413,0,24.056l-73.66,73.66c-6.643,6.643-17.412,6.643-24.056,0
		l-73.659-73.66c-6.644-6.643-6.644-17.413-0.001-24.056l73.66-73.66c6.644-6.643,17.413-6.643,24.056,0L184.486,97.88z"/>
	<path fill="#E4E4D4" d="M184.399,97.433c6.643,6.643,6.643,17.414,0,24.056l-73.66,73.66c-6.643,6.643-17.412,6.643-24.056,0
		l-73.659-73.66c-6.644-6.643-6.644-17.413-0.001-24.056l73.66-73.66c6.644-6.643,17.413-6.643,24.056,0L184.399,97.433z"/>
	<path fill="#DEDDCD" d="M184.312,96.985c6.643,6.643,6.643,17.413,0,24.055l-73.659,73.66c-6.644,6.643-17.413,6.643-24.056,0
		l-73.659-73.66c-6.644-6.643-6.644-17.412-0.001-24.055l73.66-73.66c6.644-6.643,17.413-6.643,24.056,0L184.312,96.985z"/>
	<path fill="#D8D6C7" d="M184.226,96.538c6.643,6.642,6.643,17.413,0,24.055l-73.66,73.66c-6.643,6.643-17.412,6.643-24.056,0
		l-73.659-73.66c-6.644-6.643-6.644-17.413-0.001-24.055l73.66-73.66c6.644-6.643,17.413-6.643,24.056,0L184.226,96.538z"/>
	<path fill="#D2D0C2" d="M184.139,96.09c6.643,6.643,6.643,17.413,0,24.056l-73.66,73.66c-6.643,6.643-17.412,6.643-24.055,0
		l-73.659-73.66c-6.644-6.643-6.644-17.413-0.001-24.056l73.66-73.66c6.644-6.643,17.413-6.643,24.055,0L184.139,96.09z"/>
	<path fill="#CCCABC" d="M184.052,95.643c6.643,6.643,6.643,17.413,0,24.056l-73.659,73.66c-6.644,6.643-17.413,6.643-24.056,0
		l-73.66-73.66c-6.643-6.643-6.643-17.413,0-24.056l73.66-73.66c6.643-6.643,17.412-6.643,24.056,0L184.052,95.643z"/>
	<path fill="#C6C3B6" d="M183.966,95.196c6.643,6.643,6.643,17.413,0,24.056l-73.66,73.66c-6.643,6.643-17.412,6.643-24.056,0
		l-73.659-73.66c-6.644-6.643-6.644-17.413-0.001-24.056l73.66-73.66c6.644-6.643,17.413-6.643,24.056,0L183.966,95.196z"/>
	<path fill="#C1BDB1" d="M183.879,94.748c6.643,6.643,6.643,17.414,0,24.056l-73.66,73.66c-6.643,6.643-17.412,6.643-24.055,0
		l-73.659-73.66c-6.644-6.643-6.644-17.413-0.001-24.056l73.66-73.659c6.644-6.643,17.413-6.643,24.055,0L183.879,94.748z"/>
	<path fill="#BBB7AB" d="M183.793,94.301c6.643,6.643,6.643,17.414,0,24.056l-73.66,73.659c-6.643,6.644-17.412,6.644-24.056,0
		l-73.659-73.659c-6.644-6.643-6.644-17.413-0.001-24.056l73.66-73.66c6.644-6.643,17.413-6.643,24.056,0L183.793,94.301z"/>
	<path fill="#B6B1A6" d="M183.707,93.854c6.643,6.643,6.643,17.413,0,24.056l-73.66,73.659c-6.643,6.644-17.412,6.644-24.055,0
		l-73.66-73.659c-6.643-6.644-6.643-17.413,0-24.056l73.66-73.66c6.643-6.643,17.413-6.643,24.055,0L183.707,93.854z"/>
	<path fill="#B0ABA1" d="M183.62,93.406c6.643,6.643,6.643,17.413,0,24.055l-73.659,73.66c-6.644,6.643-17.413,6.643-24.056,0
		l-73.66-73.66c-6.643-6.643-6.643-17.412,0-24.055l73.66-73.66c6.643-6.643,17.412-6.643,24.056,0L183.62,93.406z"/>
	<path fill="#ABA69C" d="M183.534,92.958c6.643,6.643,6.643,17.413,0,24.056l-73.66,73.66c-6.643,6.643-17.412,6.643-24.056,0
		l-73.659-73.66c-6.644-6.643-6.644-17.413-0.001-24.056l73.66-73.659c6.644-6.643,17.413-6.643,24.056,0L183.534,92.958z"/>
	<path fill="#A5A097" d="M183.447,92.511c6.643,6.643,6.643,17.413,0,24.056l-73.66,73.66c-6.643,6.643-17.412,6.643-24.055,0
		l-73.659-73.66c-6.644-6.643-6.644-17.413-0.001-24.056l73.66-73.66c6.644-6.643,17.413-6.643,24.055,0L183.447,92.511z"/>
	<path fill="#A09B93" d="M183.36,92.064c6.643,6.643,6.643,17.413,0,24.056l-73.659,73.66c-6.644,6.643-17.413,6.643-24.056,0
		l-73.66-73.66c-6.643-6.643-6.643-17.413,0-24.056l73.66-73.66c6.643-6.643,17.412-6.643,24.056,0L183.36,92.064z"/>
	<path fill="#9B968E" d="M183.274,91.616c6.643,6.643,6.643,17.414,0,24.056l-73.66,73.66c-6.643,6.643-17.412,6.643-24.055,0
		l-73.66-73.66c-6.643-6.643-6.643-17.413,0-24.056l73.66-73.659c6.643-6.643,17.413-6.643,24.055,0L183.274,91.616z"/>
	<path fill="#969089" d="M183.187,91.169c6.643,6.643,6.643,17.414,0,24.056l-73.66,73.659c-6.643,6.644-17.412,6.644-24.055,0
		l-73.66-73.659c-6.643-6.643-6.643-17.413,0-24.056l73.66-73.66c6.643-6.643,17.412-6.643,24.055,0L183.187,91.169z"/>
	<path fill="#928B85" d="M183.1,90.722c6.643,6.643,6.643,17.413,0,24.056l-73.659,73.659c-6.644,6.644-17.412,6.644-24.056,0
		l-73.659-73.659c-6.644-6.644-6.644-17.413-0.001-24.056l73.66-73.66c6.644-6.643,17.412-6.643,24.056,0L183.1,90.722z"/>
	<path fill="#8D8681" d="M183.014,90.274c6.643,6.643,6.643,17.413,0,24.055l-73.66,73.66c-6.643,6.643-17.412,6.643-24.055,0
		l-73.66-73.66c-6.643-6.643-6.643-17.413,0-24.055l73.66-73.66c6.643-6.643,17.413-6.643,24.055,0L183.014,90.274z"/>
	<path fill="#88817D" d="M182.927,89.827c6.643,6.643,6.643,17.413,0,24.056l-73.659,73.66c-6.644,6.643-17.413,6.643-24.056,0
		l-73.66-73.66c-6.643-6.643-6.643-17.413,0-24.056l73.66-73.659c6.643-6.643,17.412-6.643,24.056,0L182.927,89.827z"/>
	<path fill="#837D79" d="M182.84,89.379c6.643,6.643,6.643,17.413,0,24.056l-73.659,73.66c-6.644,6.643-17.412,6.643-24.055,0
		l-73.66-73.66c-6.643-6.643-6.643-17.413,0-24.056l73.66-73.66c6.643-6.643,17.412-6.643,24.055,0L182.84,89.379z"/>
	<path fill="#7F7875" d="M182.754,88.932c6.643,6.643,6.643,17.413,0,24.056l-73.66,73.66c-6.643,6.643-17.412,6.643-24.055,0
		l-73.66-73.66c-6.643-6.643-6.643-17.413,0-24.056l73.66-73.66c6.643-6.643,17.412-6.643,24.055,0L182.754,88.932z"/>
	<path fill="#7A7371" d="M182.667,88.484c6.643,6.643,6.643,17.414,0,24.056L109.008,186.2c-6.644,6.644-17.413,6.644-24.056,0
		l-73.66-73.659c-6.643-6.643-6.643-17.413,0-24.056l73.66-73.659c6.643-6.643,17.412-6.643,24.056,0L182.667,88.484z"/>
	<path fill="#766F6D" d="M182.582,88.037c6.643,6.643,6.643,17.414,0,24.056l-73.66,73.659c-6.643,6.644-17.412,6.644-24.055,0
		l-73.66-73.659c-6.643-6.643-6.643-17.413,0-24.056l73.66-73.659c6.643-6.643,17.413-6.643,24.055,0L182.582,88.037z"/>
	<path fill="#716B69" d="M182.495,87.59c6.643,6.643,6.643,17.413,0,24.056l-73.66,73.659c-6.643,6.644-17.412,6.644-24.055,0
		l-73.66-73.659c-6.643-6.644-6.643-17.413,0-24.056l73.66-73.66c6.643-6.643,17.412-6.643,24.055,0L182.495,87.59z"/>
	<path fill="#6D6666" d="M182.408,87.142c6.643,6.644,6.643,17.413,0,24.057l-73.659,73.659c-6.644,6.644-17.412,6.644-24.055,0
		l-73.66-73.659c-6.643-6.644-6.643-17.413,0-24.057l73.66-73.659c6.643-6.643,17.412-6.643,24.055,0L182.408,87.142z"/>
	<path fill="#696262" d="M182.322,86.695c6.643,6.643,6.643,17.413,0,24.056l-73.66,73.66c-6.643,6.643-17.412,6.643-24.055,0
		l-73.66-73.66c-6.643-6.643-6.643-17.413,0-24.056l73.66-73.659c6.643-6.643,17.412-6.643,24.055,0L182.322,86.695z"/>
	<path fill="#655E5F" d="M182.235,86.248c6.643,6.643,6.643,17.413,0,24.056l-73.659,73.66c-6.644,6.643-17.413,6.643-24.056,0
		l-73.66-73.66c-6.643-6.643-6.643-17.413,0-24.056l73.66-73.659c6.643-6.643,17.412-6.643,24.056,0L182.235,86.248z"/>
	<path fill="#615A5C" d="M182.148,85.8c6.643,6.643,6.643,17.413,0,24.056l-73.659,73.659c-6.644,6.644-17.412,6.644-24.055,0
		l-73.66-73.659c-6.643-6.643-6.643-17.413,0-24.056l73.66-73.66c6.643-6.643,17.412-6.643,24.055,0L182.148,85.8z"/>
	<path fill="#5D5758" d="M182.062,85.353c6.643,6.644,6.643,17.414,0,24.056l-73.66,73.659c-6.643,6.644-17.412,6.644-24.055,0
		l-73.66-73.659c-6.643-6.643-6.643-17.413,0-24.056l73.66-73.659c6.643-6.643,17.412-6.643,24.055,0L182.062,85.353z"/>
	<path fill="#595355" d="M181.975,84.905c6.643,6.643,6.643,17.414,0,24.056l-73.659,73.659c-6.644,6.644-17.413,6.644-24.055,0
		l-73.66-73.659c-6.643-6.643-6.643-17.413,0-24.056l73.66-73.659c6.643-6.643,17.412-6.643,24.055,0L181.975,84.905z"/>
	<path fill="#554F52" d="M181.888,84.458c6.643,6.643,6.643,17.413,0,24.056l-73.659,73.659c-6.644,6.644-17.412,6.644-24.055,0
		l-73.66-73.659c-6.643-6.644-6.643-17.413,0-24.056l73.66-73.66c6.643-6.643,17.411-6.643,24.055,0L181.888,84.458z"/>
	<path fill="#524C4F" d="M181.802,84.01c6.643,6.644,6.643,17.413,0,24.057l-73.66,73.659c-6.643,6.644-17.412,6.644-24.055,0
		l-73.66-73.659c-6.643-6.644-6.643-17.413,0-24.057l73.66-73.659c6.643-6.643,17.412-6.643,24.055,0L181.802,84.01z"/>
	<path fill="#4E484C" d="M181.715,83.563c6.643,6.644,6.643,17.413,0,24.056l-73.659,73.66c-6.644,6.643-17.412,6.643-24.055,0
		l-73.66-73.66c-6.643-6.643-6.643-17.412,0-24.056l73.66-73.659c6.643-6.643,17.412-6.643,24.055,0L181.715,83.563z"/>
	<path fill="#4B4549" d="M181.628,83.116c6.643,6.643,6.643,17.413,0,24.056l-73.659,73.66c-6.644,6.643-17.412,6.643-24.055,0
		l-73.66-73.66c-6.643-6.643-6.643-17.413,0-24.056l73.66-73.659c6.643-6.643,17.411-6.643,24.055,0L181.628,83.116z"/>
	<path fill="#474247" d="M181.542,82.668c6.643,6.643,6.643,17.413,0,24.056l-73.659,73.659c-6.644,6.644-17.413,6.644-24.055,0
		l-73.66-73.659c-6.643-6.643-6.643-17.413,0-24.056l73.66-73.66c6.643-6.643,17.412-6.643,24.055,0L181.542,82.668z"/>
	<path fill="#443F44" d="M181.456,82.221c6.643,6.644,6.643,17.414,0,24.056l-73.659,73.659c-6.644,6.644-17.412,6.644-24.055,0
		l-73.66-73.659c-6.643-6.643-6.643-17.413,0-24.056l73.66-73.659c6.643-6.643,17.411-6.643,24.055,0L181.456,82.221z"/>
	<path fill="#403B41" d="M181.37,81.773c6.643,6.644,6.643,17.414,0,24.056l-73.66,73.659c-6.643,6.644-17.412,6.644-24.055,0
		L9.995,105.83c-6.643-6.643-6.643-17.413,0-24.056l73.66-73.659c6.643-6.643,17.412-6.643,24.055,0L181.37,81.773z"/>
	<path fill="#3D383F" d="M181.283,81.326c6.643,6.643,6.643,17.413,0,24.056l-73.659,73.659c-6.644,6.644-17.413,6.644-24.055,0
		l-73.66-73.659c-6.643-6.644-6.643-17.413,0-24.056l73.66-73.659c6.643-6.643,17.412-6.643,24.055,0L181.283,81.326z"/>
	<path fill="#3A363C" d="M181.196,80.878c6.643,6.644,6.643,17.413,0,24.057l-73.659,73.659c-6.644,6.644-17.412,6.644-24.055,0
		l-73.66-73.659c-6.643-6.644-6.643-17.413,0-24.057l73.66-73.659c6.643-6.643,17.411-6.643,24.055,0L181.196,80.878z"/>
	<path fill="#37333A" d="M181.11,80.431c6.643,6.644,6.643,17.413,0,24.057l-73.66,73.659c-6.643,6.644-17.412,6.644-24.054,0
		l-73.66-73.659c-6.643-6.644-6.643-17.413,0-24.057l73.66-73.659c6.643-6.643,17.412-6.643,24.054,0L181.11,80.431z"/>
	<path fill="#343038" d="M181.023,79.984c6.643,6.644,6.643,17.413,0,24.056l-73.659,73.659c-6.644,6.644-17.412,6.644-24.055,0
		L9.649,104.04c-6.643-6.643-6.643-17.412,0-24.056l73.66-73.659c6.643-6.643,17.411-6.643,24.055,0L181.023,79.984z"/>
	<path fill="#312D35" d="M180.936,79.537c6.643,6.643,6.643,17.413,0,24.056l-73.659,73.659c-6.644,6.644-17.412,6.644-24.055,0
		l-73.66-73.659c-6.643-6.643-6.643-17.413,0-24.056l73.66-73.659c6.643-6.643,17.411-6.643,24.055,0L180.936,79.537z"/>
	<path fill="#2E2B33" d="M180.85,79.089c6.643,6.644,6.643,17.413,0,24.056l-73.659,73.659c-6.644,6.644-17.413,6.644-24.055,0
		l-73.66-73.659c-6.643-6.643-6.643-17.413,0-24.056L83.136,5.43c6.643-6.643,17.412-6.643,24.055,0L180.85,79.089z"/>
	<path fill="#2C2931" d="M180.763,78.642c6.643,6.644,6.643,17.413,0,24.056l-73.659,73.659c-6.644,6.644-17.412,6.644-24.055,0
		l-73.66-73.659c-6.643-6.643-6.643-17.413,0-24.056l73.66-73.659c6.643-6.643,17.411-6.643,24.055,0L180.763,78.642z"/>
</g>
<path fill="#F7F9E7" d="M180.913,78.644c6.643,6.643,6.643,17.414,0,24.057l-73.66,73.659c-6.643,6.643-17.413,6.643-24.057,0
	L9.537,102.701c-6.644-6.644-6.644-17.414,0-24.057L83.196,4.985c6.644-6.644,17.414-6.644,24.057,0L180.913,78.644z"/>
<g>
	<g>
		<defs>
			<path id="SVGID_1_" d="M180.913,78.644c6.643,6.643,6.643,17.414,0,24.057l-73.66,73.659c-6.643,6.643-17.413,6.643-24.057,0
				L9.537,102.701c-6.644-6.644-6.644-17.414,0-24.057L83.196,4.985c6.644-6.644,17.414-6.644,24.057,0L180.913,78.644z"/>
		</defs>
		<use xlink:href="#SVGID_1_"  overflow="visible" fill="#F7F9E7"/>
		<clipPath id="SVGID_2_">
			<use xlink:href="#SVGID_1_"  overflow="visible"/>
		</clipPath>
		<g clip-path="url(#SVGID_2_)">
			<path fill="#CD3B26" d="M111.179,88.219c-5.595-8.443-18.327-14.864-18.327-14.864l-6.813,6.844l-6.812,6.845
				c0,0,6.483,12.702,14.954,18.257c8.47,5.556,16.672,3.468,18.487,2.9l27.756,27.706c0,0,2.181,3.753-0.587,7.915l5.042-5.065
				l5.042-5.066c-4.149,2.787-7.913,0.625-7.913,0.625l-27.84-27.622C114.729,104.875,116.777,96.664,111.179,88.219z"/>
			<g id="XMLID_2421_">
				<g id="XMLID_2467_">
					<path fill="#2C2931" d="M59.591,120.13c1.106,0.987,2.095,1.841,2.815,2.411l23.251,18.373l-20.643-20.641
						c-0.653-0.652-0.763-1.719-0.168-2.426c0.64-0.756,1.761-0.827,2.489-0.188l22.121,19.455l-19.882-22.232
						c-0.47-0.524-0.448-1.326,0.051-1.824l0,0c0.498-0.497,1.298-0.52,1.822-0.052l22.233,19.885l-19.407-22.067
						c-0.542-0.617-0.645-1.542-0.167-2.211c0.646-0.906,1.912-0.985,2.666-0.23l20.708,20.707l-18.374-23.252
						c-0.568-0.72-1.424-1.709-2.411-2.814c-3.215-3.599-8.063-4.818-12.378-3.59c-2.414,0.686-5.008-0.115-6.707-1.963
						c-10.321-11.22-32.33-35.02-42.801-45.379c-1.565-1.548-3.019-2.911-4.361-4.105c-3.926-3.496-9.392,1.97-5.896,5.896
						c1.194,1.345,2.556,2.795,4.105,4.36c10.36,10.469,34.157,32.479,45.379,42.804c1.848,1.697,2.649,4.291,1.963,6.705
						C54.773,112.065,55.994,116.917,59.591,120.13z"/>
				</g>
			</g>
			<g id="XMLID_2420_">
				<g id="XMLID_2422_">
					<path fill="#2C2931" d="M117.924,73.619c7.502,5.779,13.572,6.663,17.601,6.228c3.807-0.409,6.825-3.426,7.233-7.233
						c0.434-4.028-0.448-10.098-6.229-17.6c-7.157-9.29-14.188-11.049-19.538-10.236c-3.288,0.501-6.613-0.562-8.866-3.008
						C98.082,30.857,78.1,9.274,68.464-0.261c-1.48-1.463-2.851-2.749-4.119-3.878c-5.025-4.472-10.047,0.548-5.573,5.573
						c1.129,1.269,2.414,2.639,3.877,4.119c9.536,9.638,31.119,29.62,42.031,39.665c2.446,2.25,3.508,5.578,3.007,8.864
						C106.875,59.432,108.635,66.463,117.924,73.619z"/>
				</g>
			</g>
		</g>
	</g>
</g>
</svg>
